<?xml version="1.0" encoding="UTF-8"?>
<svg id="Layer_2" xmlns="http://www.w3.org/2000/svg" viewBox="0 0 532.81 867.33">
  <g id="Layer_1-2" data-name="Layer_1">
    <g>
      <path d="M451.96,80.85C402.4,31.29,336.51,4,266.41,4S130.44,31.29,80.86,80.85C31.3,130.41,4,196.31,4,266.4v334.52c0,25.71,3.7,50.95,10.9,75.1l-.2.26c.12.1.24.19.37.28,7.79,25.95,19.62,50.64,35.27,73.3,29.6,42.87,70.74,75.68,118.94,94.89,26.81,10.71,55.14,16.86,84.16,18.26,4.18.21,8.54.32,12.98.32,27.61,0,54.82-4.27,80.86-12.7,37.38-12.1,72.21-32.94,100.72-60.27,28.44-27.27,50.71-61.11,64.4-97.86,10.9-29.27,16.42-60.08,16.42-91.58v-334.52c0-70.09-27.29-135.99-76.85-185.55ZM461.01,571.72v-.02.02c-.62,0-1.23-.03-1.85-.03-60.74,0-117.85,23.66-160.8,66.61-42.95,42.95-66.61,100.06-66.61,160.8,0,11.42.85,22.83,2.54,34.04-17.23-2.35-34.08-6.61-50.33-12.73-1.15-10.18-1.73-20.6-1.73-31.01,0-73.97,28.81-143.51,81.11-195.81,52.31-52.3,121.85-81.11,195.82-81.11,13.94,0,27.91,1.06,41.65,3.12v59.9c-13.07-2.42-26.4-3.68-39.8-3.79ZM266.41,228.02c19.78,0,39.46-.88,59.03-2.62v65.44c-18.69-2.33-38.39-3.65-59.03-3.65s-40.35,1.33-59.04,3.66v-65.44c19.57,1.74,39.27,2.62,59.05,2.62ZM219.08,198.25l46.93-64.74,47.54,64.75c-15.64,1.16-31.36,1.75-47.14,1.75-15.84,0-31.63-.59-47.34-1.76ZM206.63,319.16c18.83-2.53,38.77-3.98,59.77-3.98,8.34,0,16.5.24,24.5.67l-86.71,30.5c.81-9.06,1.63-18.12,2.44-27.19ZM201.32,378.46c.04-.48.09-.97.13-1.46l124.54-43.81,4.04,44.98-132.89,46.75,4.18-46.46ZM193.24,468.25l1.14-12.68,138.23-48.62,4.35,48.41-147.2,51.78,3.49-38.89ZM187,537.79l152.54-53.66,1.64,18.29c-20.41,7.94-38.34,17.3-55.26,26.13-28.26,14.75-52.66,27.49-82.25,31.12-6.16.76-12.4,1.06-18.72.95l2.05-22.83ZM500.81,487.23c-22.94-3.9-46.14-5.3-69.03-4.18-23.76,1.17-44.58,4.94-63.31,10.21l-15.23-169.61c66.99,13.26,117.45,39.4,147.57,58.62v104.96ZM174.58,363.2h-.02l-17.43,194.26c-39.2-8.13-81.1-31.77-125.13-70.66v-104.53c29.9-19.08,79.84-44.97,146.09-58.33-1.17,13.09-2.34,26.17-3.52,39.25ZM121.47,576.31c22.29,8.22,44.33,12.35,65.76,12.35,6.68,0,13.31-.4,19.86-1.21,10.32-1.27,20.02-3.45,29.35-6.29-17.57,18.76-32.52,39.38-44.65,61.39-50.76.26-104.46-24.73-159.79-74.35v-44.8c30.6,24.51,60.61,42.27,89.47,52.91ZM178.37,670.13c-6.88,16.19-12.34,32.98-16.31,50.21-38.69-7.77-79.82-28.01-122.54-60.3-4.63-17.84-7.16-36.28-7.48-55.02,49.59,40.02,98.63,61.83,146.33,65.11ZM500.81,349.51c-33.7-19.55-83.77-42.48-147.37-54.33v-72.89c45.78-6.06,90.79-16.93,134.61-32.51,8.39,24.32,12.76,50.13,12.76,76.62v83.11ZM100.66,100.65c44.28-44.27,103.15-68.65,165.75-68.65s121.48,24.38,165.75,68.65c18.73,18.73,33.89,40.09,45.16,63.23-42.76,15.1-86.71,25.52-131.41,31.16l-66.54-90.63c-3.13-4.26-8.14-6.79-13.42-6.79h-.05c-5.3.02-10.32,2.58-13.43,6.88l-65.64,90.54c-44.68-5.64-88.6-16.05-131.34-31.15,11.27-23.14,26.43-44.49,45.16-63.23ZM44.77,189.78c43.81,15.59,88.82,26.45,134.6,32.51v72.89c-63.6,11.85-113.66,34.78-147.36,54.33v-83.11c0-26.49,4.38-52.29,12.77-76.62ZM73.38,733.95c-6.21-8.99-11.73-18.34-16.58-27.98,34.34,21.45,67.88,35.49,100.24,41.92-1.85,13.65-2.81,27.51-2.81,41.52,0,5.9.17,11.8.51,17.67-32.36-17.52-60.17-42.44-81.36-73.13ZM263.04,835.29c-2.18-11.84-3.29-24-3.29-36.18,0-109.96,89.46-199.41,199.41-199.41,14.05,0,28.02,1.47,41.61,4.36-.27,20.72-3.22,41.09-8.79,60.79-10.69-2.61-21.69-3.95-32.82-3.95-76.21,0-138.22,62-138.22,138.21,0,9.8,1.05,19.56,3.09,29.08-18.75,4.74-38.07,7.15-57.63,7.15-1.14,0-2.25-.03-3.37-.04ZM428.61,770.15c-22.34,21.42-49.01,38.37-77.75,49.5-1.27-6.74-1.92-13.63-1.92-20.54,0-60.77,49.44-110.21,110.22-110.21,7.96,0,15.84.85,23.52,2.52-12.36,29.46-30.92,56.53-54.07,78.73Z"/>
      <path d="M266.41,867.33c-4.5,0-8.93-.11-13.18-.33-29.46-1.42-58.21-7.66-85.44-18.54-48.94-19.5-90.7-52.81-120.75-96.33-15.56-22.54-27.48-47.16-35.44-73.21l-2.52-1.99,1.4-1.78c-6.96-24.04-10.48-49-10.48-74.25v-334.52c0-71.16,27.71-138.06,78.03-188.38C128.36,27.71,195.26,0,266.41,0s138.06,27.71,188.37,78.02c50.31,50.31,78.02,117.21,78.02,188.38v334.52c0,31.97-5.61,63.26-16.67,92.98-13.9,37.31-36.5,71.67-65.38,99.35-28.94,27.75-64.3,48.91-102.26,61.19-26.44,8.56-54.06,12.9-82.09,12.9ZM18.73,674.86l.16.55c7.72,25.7,19.41,49.98,34.73,72.18,29.16,42.22,69.66,74.53,117.13,93.45,26.41,10.55,54.28,16.6,82.87,17.98,4.13.21,8.42.32,12.78.32,27.19,0,53.98-4.21,79.63-12.51,36.81-11.91,71.11-32.44,99.18-59.35,28.01-26.85,49.94-60.18,63.42-96.37,10.73-28.82,16.17-59.17,16.17-90.18v-334.52c0-69.02-26.88-133.92-75.68-182.72S335.44,8,266.41,8s-133.91,26.88-182.72,75.68C34.88,132.48,8,197.38,8,266.4v334.52c0,25.16,3.61,50.04,10.73,73.94ZM266.41,839.33c-.84,0-1.67-.01-2.5-.03l-4.21-.06-.59-3.23c-2.23-12.12-3.35-24.54-3.35-36.91,0-112.16,91.25-203.41,203.41-203.41,14.28,0,28.56,1.5,42.44,4.44l3.21.68-.04,3.28c-.27,21.02-3.28,41.82-8.94,61.83l-1.05,3.71-3.75-.91c-10.43-2.54-21.16-3.84-31.87-3.84-74.01,0-134.22,60.21-134.22,134.21,0,9.47,1.01,18.97,3,28.24l.81,3.77-3.74.95c-19.08,4.82-38.8,7.27-58.61,7.27ZM266.41,831.33h0c17.87,0,35.67-2.06,52.95-6.12-1.6-8.61-2.41-17.37-2.41-26.1,0-78.42,63.8-142.21,142.22-142.21,10.06,0,20.12,1.07,29.97,3.19,4.54-17.15,7.09-34.87,7.57-52.78-12.32-2.4-24.93-3.61-37.55-3.61-107.75,0-195.41,87.66-195.41,195.41,0,10.79.89,21.61,2.66,32.23ZM239.04,837.83l-5.29-.72c-17.51-2.39-34.74-6.75-51.19-12.95l-2.29-.86-.27-2.43c-1.17-10.37-1.76-20.96-1.76-31.45,0-75.04,29.22-145.58,82.28-198.64,53.06-53.06,123.61-82.28,198.65-82.28,14.06,0,28.27,1.07,42.24,3.17l3.41.51v68.15l-4.73-.88c-12.76-2.36-25.91-3.61-39.09-3.72h0s-.09,0-.14,0l-2.87-.02c-59.23.31-114.87,23.52-156.78,65.43-42.2,42.2-65.44,98.3-65.44,157.97,0,11.19.84,22.44,2.49,33.44l.79,5.28ZM187.68,817.52c13.55,4.94,27.62,8.59,41.92,10.88-1.22-9.68-1.84-19.51-1.84-29.3,0-61.81,24.07-119.92,67.78-163.63,43.71-43.71,101.82-67.78,163.63-67.78.36,0,.73,0,1.09.01.26,0,.52.01.78.01l-.03,3.98.03-3.98c12.03.1,24.04,1.12,35.77,3.03v-51.68c-12.48-1.72-25.13-2.59-37.65-2.59-72.91,0-141.45,28.39-193,79.94-51.55,51.55-79.94,120.08-79.94,192.98,0,9.38.49,18.82,1.44,28.12ZM347.83,825.11l-.89-4.72c-1.32-6.98-1.99-14.14-1.99-21.28,0-62.98,51.24-114.21,114.22-114.21,8.19,0,16.39.88,24.37,2.62l4.7,1.02-1.86,4.43c-12.57,29.94-31.58,57.63-54.99,80.07h0c-22.57,21.64-49.91,39.05-79.07,50.34l-4.48,1.74ZM459.17,692.89c-58.57,0-106.22,47.65-106.22,106.21,0,5.01.35,10.03,1.05,14.98,26.46-10.93,51.22-27.05,71.84-46.83h0c21.44-20.56,39.07-45.66,51.19-72.86-5.89-1-11.88-1.5-17.87-1.5ZM159.15,814.01l-6.31-3.42c-32.8-17.76-61.41-43.48-82.75-74.37h0c-6.24-9.04-11.92-18.62-16.86-28.46l-6.41-12.75,12.1,7.56c33.87,21.15,67.14,35.08,98.9,41.39l3.69.73-.5,3.73c-1.84,13.59-2.77,27.38-2.77,40.98,0,5.74.17,11.6.5,17.44l.41,7.16ZM76.67,731.68c19.26,27.89,44.66,51.41,73.75,68.38-.12-3.57-.19-7.13-.19-10.65,0-12.73.79-25.61,2.37-38.35-27.61-5.96-56.23-17.41-85.3-34.12,2.94,5.04,6.08,9.97,9.37,14.74h0ZM165.08,725.03l-3.81-.77c-39.23-7.88-81.01-28.41-124.17-61.03l-1.11-.84-.35-1.35c-4.72-18.2-7.28-37.03-7.61-55.96l-.15-8.55,6.66,5.37c48.83,39.4,97.31,61.02,144.1,64.24l5.6.39-2.2,5.17c-6.78,15.96-12.2,32.63-16.1,49.54l-.87,3.79ZM43.05,657.69c40.4,30.36,79.4,49.83,116.02,57.93,3.48-14.27,8.02-28.34,13.51-41.96-44.52-4.37-90.29-24.58-136.24-60.14.81,14.94,3.05,29.76,6.7,44.17ZM191.01,646.57c-51.52,0-105.9-25.36-161.68-75.38l-1.33-1.19v-54.92l6.5,5.21c30.25,24.23,59.97,41.81,88.35,52.28h0c21.78,8.03,43.44,12.1,64.37,12.1,6.5,0,13.02-.4,19.37-1.18,9.57-1.18,18.95-3.19,28.67-6.14l14.31-4.35-10.22,10.91c-17.21,18.38-32.04,38.76-44.07,60.59l-1.13,2.06h-2.35c-.27.01-.54.01-.8.01ZM36,566.42c53.22,47.37,104.82,71.63,153.44,72.14,9.96-17.74,21.72-34.53,35.08-50.08-5.65,1.28-11.26,2.25-16.93,2.95-6.68.82-13.52,1.24-20.35,1.24-21.88,0-44.47-4.24-67.14-12.6-27.14-10.01-55.4-26.28-84.09-48.43v34.78ZM187.42,564.64c-.84,0-1.69,0-2.53-.02l-4.3-.07,2.66-29.67,159.82-56.22,2.37,26.4-2.8,1.09c-20.26,7.89-37.85,17.07-54.86,25.94-28.6,14.93-53.3,27.82-83.61,31.54-5.41.67-11.04,1-16.75,1ZM190.76,540.71l-1.43,15.92c4.73-.07,9.37-.38,13.86-.93,28.87-3.55,52.97-16.13,80.88-30.7,16.42-8.57,33.37-17.42,52.86-25.2l-.91-10.18-145.26,51.1ZM160.71,562.29l-4.4-.91c-39.82-8.26-82.53-32.34-126.96-71.58l-1.35-1.19v-108.53l1.85-1.18c30.47-19.44,80.78-45.44,147.46-58.88l5.25-1.06-.7,7.78c-1.1,12.27-2.19,24.54-3.3,36.81l-17.85,198.73ZM36,485c41.24,36.16,80.75,58.87,117.55,67.58l17.35-193.37h.02c.91-10.08,1.81-20.16,2.71-30.24-61.55,13.19-108.4,37.1-137.63,55.51v100.52ZM185.21,512.98l5.42-60.33,145.51-51.18,5.08,56.63-156.01,54.88ZM197.23,468.61l-2.93,32.69,138.4-48.68-3.61-40.19-130.95,46.06-.91,10.12ZM364.92,498.42l-16.14-179.73,5.24,1.04c67.36,13.33,118.17,39.54,148.94,59.17l1.85,1.18v111.89l-4.67-.79c-22.64-3.85-45.58-5.24-68.16-4.13-21.75,1.07-42.17,4.36-62.42,10.07l-4.64,1.3ZM357.71,328.65l14.32,159.5c19.33-5.09,38.86-8.07,59.56-9.09,21.61-1.06,43.53.11,65.22,3.47v-98.06c-29.53-18.6-76.89-42.72-139.1-55.83ZM192.6,430.75l5.09-56.67,131.82-46.37,4.78,53.2-141.69,49.84ZM205.2,379.92l-3.52,39.16,124.09-43.65-3.3-36.76-117.27,41.25ZM28,356.46v-90.06c0-26.72,4.37-52.93,12.98-77.92l1.32-3.82,3.81,1.35c43.38,15.43,88.39,26.3,133.78,32.31l3.48.46v79.72l-3.27.61c-64.84,12.08-115.23,35.96-146.09,53.85l-6.01,3.48ZM47.27,194.9c-7.48,23-11.27,47.03-11.27,71.5v76.23c31.19-17.42,79-39.06,139.36-50.76v-66.08c-43.43-5.99-86.48-16.37-128.09-30.89ZM504.81,356.46l-6.01-3.48c-30.86-17.9-81.26-41.77-146.1-53.86l-3.27-.61v-79.72l3.48-.46c45.39-6.01,90.41-16.88,133.79-32.32l3.81-1.35,1.32,3.82c8.61,24.99,12.98,51.21,12.98,77.92v90.06ZM357.44,291.87c60.36,11.7,108.18,33.34,139.37,50.76v-76.23c0-24.47-3.79-48.5-11.27-71.5-41.62,14.52-84.67,24.9-128.1,30.89v66.08ZM199.66,352.19l3.28-36.56,3.17-.43c19.85-2.66,40.14-4.02,60.31-4.02,8.13,0,16.45.23,24.72.67l20.1,1.09-111.57,39.25ZM210.33,322.71l-1.6,17.8,60.62-21.32c-.98,0-1.97,0-2.95,0-18.74,0-37.58,1.19-56.08,3.53ZM203.36,295.37v-74.34l4.35.39c19.4,1.73,39.15,2.61,58.7,2.61s39.28-.88,58.67-2.61l4.35-.39v74.34l-4.49-.56c-19.3-2.41-38.99-3.62-58.54-3.62s-39.25,1.22-58.55,3.63l-4.49.56ZM211.36,229.75v56.58c18.19-2.09,36.68-3.15,55.04-3.15s36.85,1.06,55.03,3.15v-56.57c-18.22,1.5-36.71,2.26-55.03,2.26s-36.82-.76-55.05-2.26ZM266.41,204.02c-15.78,0-31.81-.6-47.63-1.77l-7.15-.53,54.36-74.98,55.06,74.99-7.2.53c-15.77,1.17-31.72,1.76-47.43,1.76ZM226.55,194.76c13.28.84,26.66,1.26,39.86,1.26s26.4-.42,39.61-1.25l-39.99-54.47-39.48,54.45ZM344.08,199.29l-67.94-92.53c-2.37-3.23-6.18-5.16-10.19-5.16-4.06.01-7.87,1.96-10.24,5.22l-67.03,92.46-2.35-.3c-44.86-5.66-89.33-16.21-132.17-31.34l-4.23-1.49,1.96-4.03c11.58-23.77,27.03-45.41,45.93-64.31h0c45.04-45.02,104.91-69.82,168.58-69.82s123.55,24.8,168.58,69.82c18.9,18.9,34.35,40.53,45.93,64.3l1.96,4.03-4.23,1.49c-42.87,15.14-87.36,25.69-132.24,31.35l-2.33.29ZM265.89,93.61c6.61,0,12.83,3.15,16.7,8.43l65.15,88.73c42.04-5.46,83.71-15.27,123.97-29.17-10.94-21.39-25.19-40.92-42.38-58.12-43.51-43.51-101.37-67.48-162.92-67.48s-119.4,23.97-162.93,67.48h0c-17.2,17.2-31.44,36.73-42.39,58.12,40.24,13.89,81.88,23.69,123.89,29.16l64.25-88.62c3.86-5.32,10.08-8.51,16.65-8.53Z"/>
    </g>
  </g>
</svg>